<svg id='Download_from_the_Cloud_16' width='16' height='16' viewBox='0 0 16 16' xmlns='http://www.w3.org/2000/svg' xmlns:xlink='http://www.w3.org/1999/xlink'><rect width='16' height='16' stroke='none' fill='#000000' opacity='0'/>


<g transform="matrix(0.5 0 0 0.5 8 8)" >
<path style="stroke: none; stroke-width: 1; stroke-dasharray: none; stroke-linecap: butt; stroke-dashoffset: 0; stroke-linejoin: miter; stroke-miterlimit: 4; fill: rgb(250,250,250); fill-rule: nonzero; opacity: 1;" transform=" translate(-12, -12)" d="M 19.355 10.036 C 18.674 6.595 15.641 4 12 4 C 9.108 4 6.603 5.639 5.352 8.036 C 2.343 8.36 0 10.906 0 14 C 0 17.314 2.686 20 6 20 L 19 20 C 21.761 20 24 17.761 24 15 C 24 12.36 21.948 10.221 19.355 10.036 z M 12 18 L 7 13 L 10 13 L 10 9 L 14 9 L 14 13 L 17 13 L 12 18 z" stroke-linecap="round" />
</g>
</svg>
