<svg id='Refresh_24' width='24' height='24' viewBox='0 0 24 24' xmlns='http://www.w3.org/2000/svg' xmlns:xlink='http://www.w3.org/1999/xlink'><rect width='24' height='24' stroke='none' fill='#000000' opacity='0'/>


<g transform="matrix(0.83 0 0 0.83 12 12)" >
<path style="stroke: none; stroke-width: 1; stroke-dasharray: none; stroke-linecap: butt; stroke-dashoffset: 0; stroke-linejoin: miter; stroke-miterlimit: 4; fill: rgb(250, 250, 250); fill-rule: nonzero; opacity: 1;" transform=" translate(-12, -12)" d="M 7.1601562 3 L 8.7617188 5 L 18 5 C 18.551 5 19 5.448 19 6 L 19 15 L 16 15 L 20 20 L 24 15 L 21 15 L 21 6 C 21 4.346 19.654 3 18 3 L 7.1601562 3 z M 4 4 L 0 9 L 3 9 L 3 18 C 3 19.654 4.346 21 6 21 L 16.839844 21 L 15.238281 19 L 6 19 C 5.449 19 5 18.552 5 18 L 5 9 L 8 9 L 4 4 z" stroke-linecap="round" />
</g>
</svg>
