<svg id='Software_Installer_24' width='24' height='24' viewBox='0 0 24 24' xmlns='http://www.w3.org/2000/svg' xmlns:xlink='http://www.w3.org/1999/xlink'><rect width='24' height='24' stroke='none' fill='#000000' opacity='0'/>


<g transform="matrix(0.5 0 0 0.5 12 12)" >
<path style="stroke: none; stroke-width: 1; stroke-dasharray: none; stroke-linecap: butt; stroke-dashoffset: 0; stroke-linejoin: miter; stroke-miterlimit: 4; fill: rgb(255, 255, 255); fill-rule: nonzero; opacity: 1;" transform=" translate(-24, -23.99)" d="M 23.976562 3.9785156 C 23.148901352253777 3.9914459713938664 22.488126980398594 4.672323509009937 22.5 5.500000000000002 L 22.5 21.878906 L 18.060547 17.439453 C 17.68431880487374 17.04760650892017 17.12565028948106 16.88976557766029 16.59999628526001 17.02680278146244 C 16.074342281038955 17.16383998526459 15.663839985264591 17.574342281038955 15.52680278146244 18.09999628526001 C 15.38976557766029 18.62565028948106 15.54760650892017 19.18431880487374 15.939453 19.560547 L 22.939453 26.560547 C 23.525247827211377 27.146099759611232 24.474752172788623 27.146099759611232 25.060547 26.560547 L 32.060547 19.560547 C 32.45239349107983 19.18431880487374 32.61023442233971 18.62565028948106 32.47319721853756 18.09999628526001 C 32.336160014735405 17.574342281038955 31.925657718961045 17.16383998526459 31.40000371473999 17.02680278146244 C 30.87434971051894 16.88976557766029 30.31568119512626 17.04760650892017 29.939453 17.439453 L 25.5 21.878906 L 25.5 5.5 C 25.50581863731553 5.094381277315419 25.347119004885432 4.703696988759657 25.06008976756276 4.417035827012122 C 24.77306053024009 4.130374665264587 24.382172922358524 3.9721764836618982 23.976562 3.9785156 z M 13.5 4 C 10.480226 4 8 6.4802259 8 9.5 L 8 38.5 C 8 41.519774 10.480226 44 13.5 44 L 34.5 44 C 37.519774 44 40 41.519774 40 38.5 L 40 9.5 C 40 6.4802259 37.519774 4 34.5 4 L 28.5 4 L 28 4 L 28 7 L 28.5 7 L 34.5 7 C 35.898226 7 37 8.1017741 37 9.5 L 37 31.613281 C 36.247721 31.224692 35.399198 31 34.5 31 L 13.5 31 C 12.600802 31 11.752279 31.224692 11 31.613281 L 11 9.5 C 11 8.1017741 12.101774 7 13.5 7 L 20 7 L 20 4 L 13.5 4 z M 13.5 34 L 34.5 34 C 35.898226 34 37 35.101774 37 36.5 L 37 38.5 C 37 39.898226 35.898226 41 34.5 41 L 13.5 41 C 12.101774 41 11 39.898226 11 38.5 L 11 36.5 C 11 35.101774 12.101774 34 13.5 34 z M 14.5 36 C 13.67157287525381 36 13 36.67157287525381 13 37.5 C 13 38.32842712474619 13.67157287525381 39 14.5 39 C 15.32842712474619 39 16 38.32842712474619 16 37.5 C 16 36.67157287525381 15.32842712474619 36 14.5 36 z" stroke-linecap="round" />
</g>
</svg>
